<?xml version="1.0" standalone="no"?>
<!DOCTYPE svg PUBLIC "-//W3C//DTD SVG 20010904//EN"
 "http://www.w3.org/TR/2001/REC-SVG-20010904/DTD/svg10.dtd">
<svg version="1.0" xmlns="http://www.w3.org/2000/svg"
 width="60.000000pt" height="58.000000pt" viewBox="0 0 60.000000 58.000000"
 preserveAspectRatio="xMidYMid meet">

<g transform="translate(0.000000,58.000000) scale(0.100000,-0.100000)"
fill="#000000" stroke="none">
<path d="M115 556 c-41 -18 -83 -69 -90 -109 -4 -18 -5 -101 -3 -184 3 -135 5
-155 24 -179 46 -63 64 -69 208 -72 l132 -3 98 87 97 87 -3 143 c-3 155 -9
171 -72 218 -25 19 -44 21 -194 23 -124 2 -175 -1 -197 -11z m387 -64 l33 -32
3 -125 4 -125 -62 0 c-55 0 -65 -3 -91 -29 -25 -25 -29 -37 -29 -81 l0 -52
-115 4 c-114 3 -115 3 -147 36 l-33 32 0 169 c0 167 0 170 25 196 14 15 34 31
45 36 11 5 91 7 177 6 l158 -2 32 -33z m-2 -326 c0 -2 -22 -23 -50 -46 l-50
-42 0 30 c0 40 23 62 66 62 19 0 34 -2 34 -4z"/>
<path d="M155 434 c-18 -19 -17 -55 3 -62 7 -2 16 5 19 17 3 12 9 21 13 21 4
0 10 -9 13 -21 7 -26 31 -20 35 8 6 44 -51 69 -83 37z"/>
<path d="M375 434 c-18 -19 -17 -55 3 -62 7 -2 16 5 19 17 3 12 9 21 13 21 4
0 10 -9 13 -21 7 -26 31 -20 35 8 6 44 -51 69 -83 37z"/>
<path d="M217 324 c-4 -4 -7 -23 -7 -41 0 -46 46 -93 90 -93 48 0 92 48 88 97
l-3 38 -80 3 c-45 1 -84 0 -88 -4z m133 -48 c0 -20 -28 -46 -50 -46 -22 0 -50
26 -50 46 0 10 13 14 50 14 37 0 50 -4 50 -14z"/>
</g>
</svg>
